<svg width="219" height="32" viewBox="0 0 219 32" fill="none" xmlns="http://www.w3.org/2000/svg">
<path d="M19.3981 23.272C19.0141 23.528 18.4915 23.816 17.8301 24.136C17.1688 24.456 16.3901 24.7227 15.4941 24.936C14.6195 25.1493 13.6595 25.256 12.6141 25.256C10.8221 25.2347 9.20079 24.9147 7.75013 24.296C6.32079 23.6773 5.10479 22.8347 4.10213 21.768C3.09946 20.7013 2.32079 19.4747 1.76613 18.088C1.23279 16.68 0.966125 15.1867 0.966125 13.608C0.966125 11.88 1.24346 10.2907 1.79813 8.84C2.37413 7.368 3.17413 6.09867 4.19813 5.032C5.22213 3.944 6.42746 3.10133 7.81413 2.504C9.22213 1.90667 10.7581 1.608 12.4221 1.608C13.8088 1.608 15.0675 1.8 16.1981 2.184C17.3288 2.54667 18.2995 2.984 19.1101 3.496L17.8621 6.376C17.2221 5.94933 16.4435 5.544 15.5261 5.16C14.6301 4.776 13.6275 4.584 12.5181 4.584C11.3875 4.584 10.3208 4.808 9.31813 5.256C8.31546 5.704 7.43013 6.33333 6.66213 7.144C5.89413 7.95467 5.28613 8.904 4.83813 9.992C4.41146 11.0587 4.19813 12.2107 4.19813 13.448C4.19813 14.7067 4.39013 15.88 4.77413 16.968C5.17946 18.0347 5.74479 18.9627 6.47013 19.752C7.21679 20.5413 8.11279 21.16 9.15813 21.608C10.2035 22.056 11.3768 22.28 12.6781 22.28C13.8515 22.28 14.8968 22.0987 15.8141 21.736C16.7315 21.3733 17.4888 20.968 18.0861 20.52L19.3981 23.272ZM25.0089 31.368L33.7449 11.752H36.4969L27.9529 31.368H25.0089ZM28.2729 25.096L21.9049 11.752H25.2649L30.6089 23.592L28.2729 25.096ZM47.7654 25.32C46.5494 25.32 45.472 25.0533 44.5334 24.52C43.616 23.9867 42.88 23.3147 42.3254 22.504L42.6774 21.576V25H39.7014V0.231998H42.6454V14.792L42.5494 13.672C43.0827 12.9467 43.84 12.36 44.8214 11.912C45.824 11.4427 46.9334 11.208 48.1494 11.208C49.344 11.208 50.432 11.496 51.4134 12.072C52.3947 12.648 53.1734 13.4587 53.7494 14.504C54.3467 15.528 54.6454 16.7547 54.6454 18.184C54.6454 19.6773 54.3254 20.9573 53.6854 22.024C53.0667 23.0907 52.2347 23.912 51.1894 24.488C50.144 25.0427 49.0027 25.32 47.7654 25.32ZM47.1574 22.792C48.0107 22.792 48.7787 22.5893 49.4614 22.184C50.144 21.7787 50.6774 21.2347 51.0614 20.552C51.4454 19.848 51.6374 19.048 51.6374 18.152C51.6374 17.2987 51.4347 16.5307 51.0294 15.848C50.6454 15.144 50.112 14.5893 49.4294 14.184C48.768 13.7787 48.0107 13.576 47.1574 13.576C46.432 13.576 45.76 13.7147 45.1414 13.992C44.5227 14.2693 44 14.6533 43.5734 15.144C43.1467 15.6133 42.848 16.168 42.6774 16.808V19.464C42.848 20.104 43.136 20.68 43.5414 21.192C43.9467 21.6827 44.4587 22.0773 45.0774 22.376C45.696 22.6533 46.3894 22.792 47.1574 22.792ZM64.8141 25.32C63.2995 25.32 61.9981 25.0213 60.9101 24.424C59.8221 23.8053 58.9795 22.9733 58.3821 21.928C57.8061 20.8613 57.5181 19.6453 57.5181 18.28C57.5181 16.9787 57.8488 15.7947 58.5101 14.728C59.1715 13.6613 60.0568 12.808 61.1661 12.168C62.2755 11.528 63.5128 11.208 64.8781 11.208C66.6275 11.208 68.0781 11.72 69.2301 12.744C70.3821 13.768 71.1608 15.176 71.5661 16.968L60.6541 20.808L59.9501 19.048L68.9101 15.784L68.2701 16.2C68.0141 15.496 67.5875 14.888 66.9901 14.376C66.3928 13.8427 65.6141 13.576 64.6541 13.576C63.8435 13.576 63.1181 13.7787 62.4781 14.184C61.8381 14.568 61.3368 15.1013 60.9741 15.784C60.6115 16.4667 60.4301 17.2453 60.4301 18.12C60.4301 19.0373 60.6221 19.848 61.0061 20.552C61.3901 21.2347 61.9128 21.7787 62.5741 22.184C63.2568 22.568 64.0248 22.76 64.8781 22.76C65.4541 22.76 66.0088 22.6533 66.5421 22.44C67.0968 22.2267 67.6088 21.9493 68.0781 21.608L69.4541 23.816C68.7928 24.264 68.0461 24.6267 67.2141 24.904C66.4035 25.1813 65.6035 25.32 64.8141 25.32ZM77.9511 11.752L78.2391 15.592L78.0791 15.08C78.4205 14.2693 78.9111 13.5867 79.5511 13.032C80.2125 12.456 80.8951 12.0187 81.5991 11.72C82.3245 11.4 82.9538 11.24 83.4871 11.24L83.3271 14.184C82.3245 14.12 81.4391 14.312 80.6711 14.76C79.9245 15.208 79.3271 15.8053 78.8791 16.552C78.4525 17.2987 78.2391 18.0987 78.2391 18.952V25H75.2951V11.752H77.9511ZM88.0624 25V1.864H94.3664C96.649 1.864 98.5904 2.216 100.19 2.92C101.812 3.624 103.113 4.552 104.094 5.704C105.076 6.856 105.79 8.136 106.238 9.544C106.708 10.9307 106.942 12.3173 106.942 13.704C106.942 15.4533 106.633 17.0213 106.014 18.408C105.417 19.7947 104.585 20.9787 103.518 21.96C102.452 22.9413 101.225 23.6987 99.8384 24.232C98.473 24.744 97.0224 25 95.4864 25H88.0624ZM91.1664 22.024H94.8784C96.1584 22.024 97.3317 21.832 98.3984 21.448C99.4864 21.064 100.425 20.5093 101.214 19.784C102.025 19.0587 102.654 18.1733 103.102 17.128C103.55 16.0613 103.774 14.856 103.774 13.512C103.774 12.0827 103.54 10.8347 103.07 9.768C102.601 8.68 101.961 7.77333 101.15 7.048C100.34 6.32267 99.4224 5.77867 98.3984 5.416C97.3744 5.032 96.297 4.84 95.1664 4.84H91.1664V22.024ZM117.564 25.32C116.049 25.32 114.748 25.0213 113.66 24.424C112.572 23.8053 111.729 22.9733 111.132 21.928C110.556 20.8613 110.268 19.6453 110.268 18.28C110.268 16.9787 110.599 15.7947 111.26 14.728C111.921 13.6613 112.807 12.808 113.916 12.168C115.025 11.528 116.263 11.208 117.628 11.208C119.377 11.208 120.828 11.72 121.98 12.744C123.132 13.768 123.911 15.176 124.316 16.968L113.404 20.808L112.7 19.048L121.66 15.784L121.02 16.2C120.764 15.496 120.337 14.888 119.74 14.376C119.143 13.8427 118.364 13.576 117.404 13.576C116.593 13.576 115.868 13.7787 115.228 14.184C114.588 14.568 114.087 15.1013 113.724 15.784C113.361 16.4667 113.18 17.2453 113.18 18.12C113.18 19.0373 113.372 19.848 113.756 20.552C114.14 21.2347 114.663 21.7787 115.324 22.184C116.007 22.568 116.775 22.76 117.628 22.76C118.204 22.76 118.759 22.6533 119.292 22.44C119.847 22.2267 120.359 21.9493 120.828 21.608L122.204 23.816C121.543 24.264 120.796 24.6267 119.964 24.904C119.153 25.1813 118.353 25.32 117.564 25.32ZM129.325 5.928H132.301V11.816H135.949V14.152H132.301V25H129.325V14.152H126.893V11.816H129.325V5.928ZM145.689 25.32C144.174 25.32 142.873 25.0213 141.785 24.424C140.697 23.8053 139.854 22.9733 139.257 21.928C138.681 20.8613 138.393 19.6453 138.393 18.28C138.393 16.9787 138.724 15.7947 139.385 14.728C140.046 13.6613 140.932 12.808 142.041 12.168C143.15 11.528 144.388 11.208 145.753 11.208C147.502 11.208 148.953 11.72 150.105 12.744C151.257 13.768 152.036 15.176 152.441 16.968L141.529 20.808L140.825 19.048L149.785 15.784L149.145 16.2C148.889 15.496 148.462 14.888 147.865 14.376C147.268 13.8427 146.489 13.576 145.529 13.576C144.718 13.576 143.993 13.7787 143.353 14.184C142.713 14.568 142.212 15.1013 141.849 15.784C141.486 16.4667 141.305 17.2453 141.305 18.12C141.305 19.0373 141.497 19.848 141.881 20.552C142.265 21.2347 142.788 21.7787 143.449 22.184C144.132 22.568 144.9 22.76 145.753 22.76C146.329 22.76 146.884 22.6533 147.417 22.44C147.972 22.2267 148.484 21.9493 148.953 21.608L150.329 23.816C149.668 24.264 148.921 24.6267 148.089 24.904C147.278 25.1813 146.478 25.32 145.689 25.32ZM166.922 23.784C166.325 24.2533 165.61 24.6267 164.778 24.904C163.946 25.1813 163.114 25.32 162.282 25.32C160.831 25.32 159.562 25.032 158.474 24.456C157.386 23.88 156.533 23.08 155.914 22.056C155.317 21.0107 155.018 19.784 155.018 18.376C155.018 16.968 155.338 15.7413 155.978 14.696C156.639 13.6507 157.493 12.8507 158.538 12.296C159.605 11.72 160.746 11.432 161.962 11.432C163.029 11.432 163.978 11.5813 164.81 11.88C165.663 12.1787 166.389 12.584 166.986 13.096L165.514 15.016C165.13 14.7173 164.661 14.4507 164.106 14.216C163.551 13.9813 162.922 13.864 162.218 13.864C161.45 13.864 160.735 14.0667 160.074 14.472C159.434 14.856 158.922 15.3893 158.538 16.072C158.175 16.7547 157.994 17.5227 157.994 18.376C157.994 19.1867 158.186 19.944 158.57 20.648C158.954 21.3307 159.487 21.8747 160.17 22.28C160.853 22.664 161.631 22.856 162.506 22.856C163.082 22.856 163.605 22.7707 164.074 22.6C164.565 22.4293 165.002 22.1947 165.386 21.896L166.922 23.784ZM172.044 5.928H175.02V11.816H178.668V14.152H175.02V25H172.044V14.152H169.612V11.816H172.044V5.928ZM182.264 11.752H185.24V25H182.264V11.752ZM182.04 6.952C182.04 6.48267 182.221 6.088 182.584 5.768C182.968 5.448 183.384 5.288 183.832 5.288C184.28 5.288 184.675 5.448 185.016 5.768C185.379 6.088 185.56 6.48267 185.56 6.952C185.56 7.44267 185.379 7.848 185.016 8.168C184.675 8.46667 184.28 8.616 183.832 8.616C183.384 8.616 182.968 8.456 182.584 8.136C182.221 7.816 182.04 7.42133 182.04 6.952ZM195.765 25.384L188.405 11.752H191.925L196.917 22.28L195.093 22.216L199.669 11.752H202.997L195.925 25.384H195.765ZM212.033 25.32C210.518 25.32 209.217 25.0213 208.129 24.424C207.041 23.8053 206.198 22.9733 205.601 21.928C205.025 20.8613 204.737 19.6453 204.737 18.28C204.737 16.9787 205.068 15.7947 205.729 14.728C206.39 13.6613 207.276 12.808 208.385 12.168C209.494 11.528 210.732 11.208 212.097 11.208C213.846 11.208 215.297 11.72 216.449 12.744C217.601 13.768 218.38 15.176 218.785 16.968L207.873 20.808L207.169 19.048L216.129 15.784L215.489 16.2C215.233 15.496 214.806 14.888 214.209 14.376C213.612 13.8427 212.833 13.576 211.873 13.576C211.062 13.576 210.337 13.7787 209.697 14.184C209.057 14.568 208.556 15.1013 208.193 15.784C207.83 16.4667 207.649 17.2453 207.649 18.12C207.649 19.0373 207.841 19.848 208.225 20.552C208.609 21.2347 209.132 21.7787 209.793 22.184C210.476 22.568 211.244 22.76 212.097 22.76C212.673 22.76 213.228 22.6533 213.761 22.44C214.316 22.2267 214.828 21.9493 215.297 21.608L216.673 23.816C216.012 24.264 215.265 24.6267 214.433 24.904C213.622 25.1813 212.822 25.32 212.033 25.32Z" fill="#4AB2BB"/>
</svg>
